<svg id="Capa_1" data-name="Capa 1" xmlns="http://www.w3.org/2000/svg" viewBox="0 0 600 900">
  <defs>
    <style>
      .cls-1 {
        fill: #ddd;
      }

      .cls-2 {
        fill: #b6b6b6;
      }
    </style>
  </defs>
  <rect class="cls-1" width="600" height="900"/>
  <g>
    <path class="cls-2" d="M50,650H550V250H50ZM81.25,281.48h437.5v337H81.25Z"/>
    <path class="cls-2" d="M268,472,231.14,429.1,117,562H483L336.84,391.84Zm-43.13,58.5h-39.5l45.76-53.29,45.8,53.29Zm93.38,0L288.65,496l48.19-56.1,77.8,90.55Z"/>
    <path class="cls-2" d="M265.8,412.21a40.37,40.37,0,1,0-40.17-40.36A40.32,40.32,0,0,0,265.8,412.21Zm0-49.26a8.89,8.89,0,1,1-8.92,8.89A8.92,8.92,0,0,1,265.8,363Z"/>
  </g>
</svg>
