<svg id="Layer_1" data-name="Layer 1" xmlns="http://www.w3.org/2000/svg" viewBox="0 0 100 150">
  <defs>
    <style>
      .cls-1 {
        fill: #ddd;
      }

      .cls-2 {
        fill: #9f9f9f;
      }

      .cls-3 {
        fill: #b6b6b6;
      }

      .cls-4 {
        fill: #f1f1f1;
      }
    </style>
  </defs>
  <g>
    <g id="background">
      <rect class="cls-1" width="100" height="150"/>
    </g>
    <path class="cls-2" d="M73.06,84.7a37.08,37.08,0,0,0-.52,9.86,14.17,14.17,0,0,0,4,9.26c1.82,1.88,3.74,3.66,5.7,5.4a30.18,30.18,0,0,1,7.4,8.82A25.57,25.57,0,0,1,92,125.8a52.76,52.76,0,0,1,.35,6.64,4.67,4.67,0,0,1-.55,2.52c-.12,0-.25,0-.37-.05a85.31,85.31,0,0,0-10-2.62l-5.22-1.07c-.24-.08-.46-.18-.7-.24a36.34,36.34,0,0,1-9-3.12A11.85,11.85,0,0,1,60.77,122a19.83,19.83,0,0,1-1.21-4.61,19.39,19.39,0,0,1,.06-3.88c0-.83.16-1.64.25-2.47.14-.18.25-.38.4-.55.87-1,1.73-2,2.63-2.92a11.58,11.58,0,0,0,3-5.32c.43-1.75.92-3.48,1.39-5.22.08-.26.07-.56.5-.59,1.14-.09,1.49-.35,1.73-1.48.21-1,.27-1.93.39-2.89.06-.51.08-1,.13-1.54l-.14,0L68.5,92.64l-.17-.06a24.37,24.37,0,0,0,1.78-14A21.55,21.55,0,0,1,67,85.19c-1.23,1.69-2.62,3.25-4,4.88L63,90l1.21-2.74-.15-.1L62.4,88.43c.31-1.3.61-2.45.85-3.62s.43-2.32.58-3.49.22-2.34.33-3.51l-.15,0a38,38,0,0,1-3.22,8l.41-4.38H61L60.25,83c-.11-.3-.18-.46-.23-.63-.38-1.33-.69-2.69-1.16-4a29.68,29.68,0,0,0-9.51-13c-2.4-1.95-5-3.73-7.42-5.59a11.71,11.71,0,0,1-3.55-3.63c-.17-.32-.3-.65-.46-1a13.33,13.33,0,0,1-.69,2.16C36.12,59.59,35,61.81,33.77,64a77.41,77.41,0,0,0-5.24,10.21,12.56,12.56,0,0,0-.9,7.34c.42,1.87.66,3.78,1,5.67.15.91.28,1.81.42,2.72a18.2,18.2,0,0,1-3.58-5.31c-.64-1.51-1.09-3.09-1.63-4.64a5.29,5.29,0,0,0-.25-.54,30.65,30.65,0,0,0-.13,3.81,1,1,0,0,0,.15.47A20.16,20.16,0,0,0,24.92,86a10.21,10.21,0,0,1,2.15,6.29,14.47,14.47,0,0,0,.6,3.15,1.42,1.42,0,0,0,1.43,1.09c.44,0,.55.22.65.58.53,2,1.08,4,1.6,5.94a11.06,11.06,0,0,0,2.76,4.52c.83.93,1.63,1.89,2.44,2.84a8.42,8.42,0,0,0,0,.87c.12,2,.34,4.05.35,6.07a11.26,11.26,0,0,1-5.59,10,28.6,28.6,0,0,1-7.95,3.21c-.49.14-1,.32-1.46.49s-1.22.18-1.82.31L11,133.35c-.72-1.07-1.52-2.09-2.13-3.21a42.43,42.43,0,0,1-2.45-5c-.78-2-.44-4.09,0-6.13a44.7,44.7,0,0,1,4.85-12.19c2.83-5,5.8-10,8.75-14.9a8.82,8.82,0,0,0,1.21-6.15c-.46-2.79-.88-5.58-1.37-8.35a20.82,20.82,0,0,1,.27-7.67c.28-1.43.4-2.88.72-4.3.71-3.22,1.44-6.43,2.27-9.62a24.49,24.49,0,0,1,3-6.95A19.47,19.47,0,0,1,33,42.53,31.25,31.25,0,0,1,45.34,38.7a26.94,26.94,0,0,1,13.21,2.07A29.38,29.38,0,0,1,68.87,47.5a23.59,23.59,0,0,1,5.88,10.36A32.31,32.31,0,0,1,75.87,65c.11,1.9.31,3.8.36,5.7A23.59,23.59,0,0,1,74.5,79.8c-.34.89-.59,1.82-.88,2.73l-.35-.24-1.19,3.57Z" transform="translate(0)"/>
    <path class="cls-3" d="M100,150c-35.16,0-58.48,0-93.64,0L0,150" transform="translate(0)"/>
    <path class="cls-3" d="M0,150V139.18a15.49,15.49,0,0,1,6.85-4.56c1.34-.49,2.73-.85,4.1-1.27l9.12-2.06c.6-.13,1.21-.21,1.82-.31l.6.63a29.07,29.07,0,0,0,9,6.31,41.46,41.46,0,0,0,16.28,3.66,40.41,40.41,0,0,0,4.67-.13,48.9,48.9,0,0,0,5.42-.66,37.5,37.5,0,0,0,11.67-4.23,27,27,0,0,0,6.7-5.34l5.22,1.07a85.31,85.31,0,0,1,10,2.62c.12,0,.25,0,.37.05a6.3,6.3,0,0,0,.8.45,13.89,13.89,0,0,1,5.94,4.11,10.8,10.8,0,0,1,1.44,2c0,2.83,0,5.63,0,8.46" transform="translate(0)"/>
    <path class="cls-4" d="M63.06,90.07c1.33-1.63,2.72-3.19,4-4.88a21.55,21.55,0,0,0,3.1-6.57,24.37,24.37,0,0,1-1.78,14l.17.06,1.37-2.18.14,0c-.05.51-.07,1-.13,1.54-.12,1-.18,1.94-.39,2.89-.24,1.13-.59,1.39-1.73,1.48-.43,0-.42.33-.5.59-.47,1.74-1,3.47-1.39,5.22a11.58,11.58,0,0,1-3,5.32c-.9,1-1.76,1.94-2.63,2.92-.15.17-.26.37-.4.55l-.84.78c-1,1-2.06,1.93-3.11,2.87a19.57,19.57,0,0,1-5,3.45,4.46,4.46,0,0,1-3.66.44,19.51,19.51,0,0,1-3.57-1.86c-1.51-1.08-2.88-2.34-4.29-3.56-.76-.67-1.46-1.42-2.19-2.13l-.66-.61c-.81-1-1.61-1.91-2.44-2.84A11.06,11.06,0,0,1,31.35,103c-.52-2-1.07-4-1.6-5.94-.1-.36-.21-.56-.65-.58a1.42,1.42,0,0,1-1.43-1.09,14.47,14.47,0,0,1-.6-3.15A10.21,10.21,0,0,0,24.92,86a20.16,20.16,0,0,1-1.33-2.25,1,1,0,0,1-.15-.47,30.65,30.65,0,0,1,.13-3.81,5.29,5.29,0,0,1,.25.54c.54,1.55,1,3.13,1.63,4.64A18.2,18.2,0,0,0,29,89.92c-.14-.91-.27-1.81-.42-2.72-.32-1.89-.56-3.8-1-5.67a12.56,12.56,0,0,1,.9-7.34A77.41,77.41,0,0,1,33.77,64c1.21-2.17,2.35-4.39,3.46-6.62a13.33,13.33,0,0,0,.69-2.16c.16.34.29.67.46,1a11.71,11.71,0,0,0,3.55,3.63c2.47,1.86,5,3.64,7.42,5.59a29.68,29.68,0,0,1,9.51,13c.47,1.3.78,2.66,1.16,4,0,.17.12.33.23.63L61,81.41h.19l-.41,4.38a38,38,0,0,0,3.22-8l.15,0c-.11,1.17-.18,2.35-.33,3.51s-.35,2.33-.58,3.49-.54,2.32-.85,3.62L64,87.14l.15.1L63,90l-.09.29-.06,0h0s0,0,0,0Zm-2.34-3.93,0,0,0,0s0,0,0,.05Zm7.6,6.68s0,0,0,0l-.1,0,0,0Z" transform="translate(0)"/>
    <path class="cls-1" d="M36.55,110.37l.66.61c.73.71,1.43,1.46,2.19,2.13,1.41,1.22,2.78,2.48,4.29,3.56a19.51,19.51,0,0,0,3.57,1.86,4.46,4.46,0,0,0,3.66-.44,19.57,19.57,0,0,0,5-3.45c1-.94,2.07-1.91,3.11-2.87l.84-.78c-.09.83-.21,1.64-.25,2.47a19.39,19.39,0,0,0-.06,3.88A19.83,19.83,0,0,0,60.77,122a11.85,11.85,0,0,0,5.75,5.91,36.34,36.34,0,0,0,9,3.12c.24.06.46.16.7.24a27,27,0,0,1-6.7,5.34,37.5,37.5,0,0,1-11.67,4.23,48.9,48.9,0,0,1-5.42.66,40.41,40.41,0,0,1-4.67.13,41.46,41.46,0,0,1-16.28-3.66,29.07,29.07,0,0,1-9-6.31l-.6-.63c.49-.17,1-.35,1.46-.49a28.6,28.6,0,0,0,8-3.21,11.26,11.26,0,0,0,5.59-10c0-2-.23-4-.35-6.07A8.42,8.42,0,0,1,36.55,110.37Z" transform="translate(0)"/>
  </g>
</svg>
