<svg xmlns="http://www.w3.org/2000/svg" viewBox="0 0 297 297">
  <g>
    <path
      d="M294.908,142.226c-0.566-0.756-14.168-18.72-38.881-36.693c-32.842-23.886-70.023-36.511-107.525-36.511   c-37.501,0-74.683,12.625-107.526,36.51C16.262,123.506,2.658,141.47,2.092,142.226c-2.789,3.718-2.789,8.831,0,12.549   c0.566,0.756,14.17,18.72,38.884,36.694c32.844,23.885,70.025,36.51,107.526,36.51c37.502,0,74.683-12.625,107.525-36.511   c24.713-17.974,38.315-35.938,38.881-36.693C297.697,151.057,297.697,145.943,294.908,142.226z M207.065,148.5   c0,32.292-26.27,58.564-58.563,58.564c-32.292,0-58.564-26.271-58.564-58.564s26.272-58.563,58.564-58.563   C180.795,89.937,207.065,116.208,207.065,148.5z M24.153,148.5c5.686-6.283,15.785-16.427,29.681-26.457   c9.118-6.581,18.458-12.157,27.996-16.725c-8.088,12.443-12.807,27.268-12.807,43.182s4.719,30.738,12.807,43.182   c-9.538-4.567-18.878-10.144-27.996-16.725C39.937,164.925,29.836,154.779,24.153,148.5z M243.167,174.957   c-9.115,6.581-18.456,12.156-27.991,16.725c8.086-12.443,12.805-27.269,12.805-43.182s-4.719-30.738-12.805-43.181   c9.535,4.567,18.876,10.143,27.991,16.724c13.897,10.032,23.998,20.178,29.68,26.457   C267.162,154.783,257.063,164.927,243.167,174.957z"
    />
    <path
      d="M165.756,183.011l-8.627-36.837c5.153-2.985,8.627-8.545,8.627-14.929c0-9.531-7.725-17.256-17.255-17.256   c-9.53,0-17.255,7.725-17.255,17.256c0,6.384,3.474,11.943,8.627,14.929l-8.627,36.837H165.756z"
    />
  </g>
</svg>
