<svg viewBox="0 0 31.16 31.16" xmlns="http://www.w3.org/2000/svg">
  <g>
    <path
      d="M15.58,0C6.976,0,0.001,6.976,0.001,15.58c0,8.604,6.975,15.58,15.579,15.58c8.604,0,15.579-6.977,15.579-15.58    C31.159,6.976,24.185,0,15.58,0z M15.58,28.16c-6.937,0-12.579-5.643-12.579-12.58C3.001,8.643,8.643,3,15.58,3    c6.937,0,12.579,5.643,12.579,12.58C28.159,22.518,22.517,28.16,15.58,28.16z"
    />
    <path
      d="M22.151,14.58h-4.442c-0.233-0.497-0.633-0.896-1.129-1.129V6.138c0-0.552-0.446-1-1-1c-0.553,0-1,0.448-1,1v7.313    c-0.801,0.377-1.358,1.185-1.358,2.129c0,1.303,1.056,2.359,2.358,2.359c0.944,0,1.752-0.559,2.129-1.359h4.442    c0.553,0,1-0.448,1-1S22.704,14.58,22.151,14.58z"
    />
  </g>
</svg>
