<svg xmlns="http://www.w3.org/2000/svg" viewBox="0 0 215.35 215.35">
  <g>
    <path
      d="M146.7,204.3c4.1,0,7.5-3.4,7.5-7.5v-32l48.3,48.3c1.5,1.5,3.4,2.2,5.3,2.2c1.9,0,3.8-0.7,5.3-2.2
   c2.9-2.9,2.9-7.7,0-10.6l-48.3-48.3h32c4.1,0,7.5-3.4,7.5-7.5s-3.4-7.5-7.5-7.5h-50.1c-4.1,0-7.5,3.4-7.5,7.5v50.1
   C139.2,201,142.6,204.3,146.7,204.3z"
    />
    <path
      d="M70.1,12.5c-4.1,0-7.5,3.4-7.5,7.5v32L12.8,2.2c-2.9-2.9-7.7-2.9-10.6,0s-2.9,7.7,0,10.6L52,62.6H20
   c-4.1,0-7.5,3.4-7.5,7.5s3.4,7.5,7.5,7.5h50.1c4.1,0,7.5-3.4,7.5-7.5V20C77.6,15.9,74.2,12.5,70.1,12.5z"
    />
    <path
      d="M201.6,2.2L151.8,52V20c0-4.1-3.4-7.5-7.5-7.5s-7.5,3.4-7.5,7.5v50.1c0,4.1,3.4,7.5,7.5,7.5h50.1
   c4.1,0,7.5-3.4,7.5-7.5s-3.4-7.5-7.5-7.5h-32l49.8-49.8c2.9-2.9,2.9-7.7,0-10.6C209.3-0.7,204.5-0.7,201.6,2.2z"
    />
    <path
      d="M69.3,139.2H19.3c-4.1,0-7.5,3.4-7.5,7.5s3.4,7.5,7.5,7.5h32L2.9,202.5c-2.9,2.9-2.9,7.7,0,10.6
   c1.5,1.5,3.4,2.2,5.3,2.2c1.9,0,3.8-0.7,5.3-2.2l48.3-48.3v32c0,4.1,3.4,7.5,7.5,7.5s7.5-3.4,7.5-7.5v-50.1
   C76.8,142.6,73.5,139.2,69.3,139.2z"
    />
  </g>
</svg>
