<svg xmlns="http://www.w3.org/2000/svg" viewBox="0 0 512 512">
  <g>
    <path
      d="M505.508,475.582l-163.48-163.48c26.405-32.888,42.214-74.647,42.214-120.102c0-106.033-85.967-192-192-192    s-192,85.967-192,192s85.967,192,192,192c45.207,0,86.759-15.635,119.563-41.78l163.532,163.532c8.331,8.331,21.839,8.331,30.17,0    C513.84,497.42,513.84,483.913,505.508,475.582z M42.91,192c0-82.469,66.865-149.333,149.333-149.333S341.577,109.531,341.577,192    c0,41.354-16.816,78.783-43.98,105.826c-0.002,0.002-0.005,0.004-0.007,0.007c-0.001,0.001-0.003,0.003-0.004,0.005    c-27.005,26.879-64.234,43.496-105.342,43.496C109.775,341.333,42.91,274.469,42.91,192z"
    />
  </g>
</svg>
