<svg id="Layer_1" data-name="Layer 1" xmlns="http://www.w3.org/2000/svg" viewBox="0 0 100 150">
  <defs>
    <style>
      .cls-1 {
        fill: #ddd;
      }

      .cls-2 {
        fill: #b6b6b6;
      }

      .cls-3 {
        fill: #aaa;
      }

      .cls-4 {
        fill: #999;
      }

      .cls-5 {
        fill: #888;
      }
    </style>
  </defs>
  <g id="person">
    <g id="background">
      <rect class="cls-1" width="100" height="150"/>
    </g>
    <path class="cls-2" d="M0,150V139.18a15.49,15.49,0,0,1,6.85-4.56c1.34-.49,2.73-.85,4.1-1.27l9.12-2.06c.6-.13,1.21-.21,1.82-.31l.6.63a29.07,29.07,0,0,0,9,6.31,41.42,41.42,0,0,0,16.28,3.66,40.41,40.41,0,0,0,4.67-.13,48.9,48.9,0,0,0,5.42-.66,37.5,37.5,0,0,0,11.67-4.23,27,27,0,0,0,6.7-5.34l5.22,1.07a85.31,85.31,0,0,1,10,2.62c.12,0,.25,0,.37.05a6.3,6.3,0,0,0,.8.45,13.89,13.89,0,0,1,5.94,4.11,11.29,11.29,0,0,1,1.44,2c0,2.83,0,5.63,0,8.46" transform="translate(0)"/>
    <path class="cls-3" d="M36.55,110.37l.66.61c.73.71,1.43,1.46,2.19,2.13,1.41,1.22,2.78,2.48,4.29,3.56a19.51,19.51,0,0,0,3.57,1.86,4.46,4.46,0,0,0,3.66-.44,19.57,19.57,0,0,0,5-3.45c1-.94,2.07-1.91,3.11-2.87l.84-.78c-.09.83-.21,1.64-.25,2.47a19.39,19.39,0,0,0-.06,3.88A19.83,19.83,0,0,0,60.77,122a11.85,11.85,0,0,0,5.75,5.91,36.2,36.2,0,0,0,9,3.12c.24.06.46.16.7.24a27,27,0,0,1-6.7,5.34,37.5,37.5,0,0,1-11.67,4.23,48.9,48.9,0,0,1-5.42.66,40.41,40.41,0,0,1-4.67.13,41.46,41.46,0,0,1-16.28-3.66,29.07,29.07,0,0,1-9-6.31l-.6-.63c.49-.17,1-.35,1.46-.49a28.6,28.6,0,0,0,8-3.21,11.27,11.27,0,0,0,5.59-10c0-2-.23-4-.35-6.07A8.42,8.42,0,0,1,36.55,110.37Z" transform="translate(0)"/>
    <path id="head" class="cls-4" d="M72.16,87c-2,18.79-9.12,31.84-23.83,31.84S26.79,107.08,24.51,87.42c-2-17.53,9-32.55,23.82-32.55S73.81,69.42,72.16,87Z" transform="translate(0)"/>
  </g>
  <path class="cls-5" d="M28.37,84.58" transform="translate(0)"/>
</svg>
