<svg id="Layer_1" data-name="Layer 1" xmlns="http://www.w3.org/2000/svg" viewBox="0 0 100.01 150">
  <defs>
    <style>
      .cls-1 {
        fill: #ddd;
      }

      .cls-2 {
        fill: silver;
      }

      .cls-3 {
        fill: #bbb;
      }

      .cls-4 {
        fill: #a9a9a9;
      }

      .cls-5 {
        fill: #9f9f9f;
      }
    </style>
  </defs>
  <g id="background">
    <rect class="cls-1" x="0.01" width="100" height="150"/>
  </g>
  <g>
    <path class="cls-2" d="M100,150H0V139.35a121.91,121.91,0,0,1,16-9.88c3.5-1.91,7-3.85,10.49-5.77a2.64,2.64,0,0,1,.5-.15c-.16.28-.34.56-.48.86a7.62,7.62,0,0,0-.53,4.3,9.1,9.1,0,0,0,2.89,5.22,10.4,10.4,0,0,0,2.55,1.64c4,2.09,8.37,2.44,12.77,2.58.64,0,1.28-.09,1.92-.1a28.49,28.49,0,0,0,5.68-.49,34.16,34.16,0,0,0,6.18-1.76A21.64,21.64,0,0,0,63,133.15c1.79-1.38,3.81-2.46,5.31-4.21,1.19-1.39,2.39-2.78,3.54-4.22.68-.83,1.64-1.47,1.93-2.6q10.29,4.75,20.59,9.51a23.49,23.49,0,0,1,5.6,3.66" transform="translate(0.01)"/>
    <path class="cls-3" d="M69.52,76.35c.28-.27.59-.51.84-.8a1.35,1.35,0,0,1,1.83-.31,1.75,1.75,0,0,1,1,1.74,11.4,11.4,0,0,1-.94,4.84,49.89,49.89,0,0,0-2.09,6.48A5.39,5.39,0,0,1,66,92.2a5.9,5.9,0,0,0-.73.15c-.17.07-.4.22-.44.37-.29,1.2-.53,2.41-.79,3.62a6.28,6.28,0,0,0-.24.69,8.1,8.1,0,0,1-1.33,3.64,20.47,20.47,0,0,1-2.58,2.76,26.64,26.64,0,0,1-7.08,4.32,19,19,0,0,1-8,1.56c-1.1,0-2.21-.21-3.31-.37a12.2,12.2,0,0,1-6.06-2.51,4.49,4.49,0,0,0-1-.46,4.91,4.91,0,0,0-.55-1,15.12,15.12,0,0,1-3.18-5.64c-.7-2.18-1.3-4.4-1.9-6.62a1.3,1.3,0,0,0-.93-1.09A4.76,4.76,0,0,1,26.46,91a2.4,2.4,0,0,1-.83-1.09,7,7,0,0,1-.17-1.6c-.19-1.88-.36-3.78-.6-5.66-.21-1.61-.51-3.21-.77-4.82a.81.81,0,0,1,0-.31c.14-.46.17-1.15.48-1.31a1.5,1.5,0,0,1,1.64.15L27.4,79.5c.06-1.13.09-2.46.2-3.78.15-1.64.31-3.29.57-4.92s.64-3,.91-4.44.42-3.21.78-4.77c.82-3.58,3.48-5.35,7.1-4.88a38.7,38.7,0,0,0,4.79.5c1.62,0,3.24-.35,4.87-.45,2.63-.17,5.26-.37,7.89-.35a14.89,14.89,0,0,1,4.39.72c3.33,1.07,3.82,2.83,3.88,5.22s0,4.68.16,7a10.51,10.51,0,0,0,1.15,4.42c.17.32.42.74.71.83.81.22,1,.85,1.11,1.49.29,1.33.51,2.67.77,4Z" transform="translate(0.01)"/>
    <path class="cls-4" d="M34.48,106a4.49,4.49,0,0,1,1,.46,12.2,12.2,0,0,0,6.06,2.51c1.1.16,2.21.32,3.31.37a19,19,0,0,0,8-1.56,26.64,26.64,0,0,0,7.08-4.32,20.47,20.47,0,0,0,2.58-2.76A8.1,8.1,0,0,0,63.8,97a6.28,6.28,0,0,1,.24-.69c-.08,3.34-.18,6.68-.22,10,0,1.77.06,3.53.12,5.29s.18,3.72.23,5.58c0,.41.24.52.53.65,2.23,1,4.45,2,6.67,3,.82.38,1.62.8,2.44,1.2-.29,1.13-1.25,1.77-1.93,2.6-1.15,1.44-2.35,2.83-3.54,4.22-1.5,1.75-3.52,2.83-5.31,4.21a21.64,21.64,0,0,1-5.09,2.65,34.16,34.16,0,0,1-6.18,1.76,28.49,28.49,0,0,1-5.68.49c-.64,0-1.28.12-1.92.1-4.4-.14-8.77-.49-12.77-2.58a10.4,10.4,0,0,1-2.55-1.64A9.1,9.1,0,0,1,26,128.71a7.62,7.62,0,0,1,.53-4.3c.14-.3.32-.58.48-.86h0l.14-.2a38,38,0,0,1,6.8-3.56,5.33,5.33,0,0,0,.91-.4.9.9,0,0,0,.39-.52,33.07,33.07,0,0,0-.21-8.43c-.23-1.23-.3-2.5-.44-3.75l-.06-.27Z" transform="translate(0.01)"/>
    <path class="cls-5" d="M69.52,76.35l-2.84,3.8c-.26-1.37-.48-2.71-.77-4-.13-.64-.3-1.27-1.11-1.49-.29-.09-.54-.51-.71-.83a10.51,10.51,0,0,1-1.15-4.42c-.11-2.34-.11-4.68-.16-7s-.55-4.15-3.88-5.22a14.89,14.89,0,0,0-4.39-.72c-2.63,0-5.26.18-7.89.35-1.63.1-3.25.45-4.87.45a38.7,38.7,0,0,1-4.79-.5c-3.62-.47-6.28,1.3-7.1,4.88-.36,1.56-.49,3.18-.78,4.77s-.67,3-.91,4.44-.42,3.28-.57,4.92c-.11,1.32-.14,2.65-.2,3.78l-1.19-3.15c-.2-1.32-.41-2.64-.6-4a16.61,16.61,0,0,1-.14-1.72c-.06-1.35-.07-2.69-.14-4-.1-1.72-.25-3.45-.36-5.17s-.34-3.74.38-5.56a6.47,6.47,0,0,1,2.77-3.42,1.28,1.28,0,0,0,.77-1,6.39,6.39,0,0,1,2.43-4A16,16,0,0,1,39.42,44c1.8-.23,3.62-.3,5.43-.38s3.73-.15,5.59-.11,4,.24,5.93.35c3.43.21,6,2.08,8.55,4.18.38.32.74.66,1.11,1a10.85,10.85,0,0,1,3.25,4.34,30.58,30.58,0,0,1,1.64,4.13,28.41,28.41,0,0,1,.13,5.06c0,.82-.06,1.65-.14,2.47-.12,1.18-.29,2.36-.44,3.53s-.27,2.16-.42,3.24-.31,2.18-.45,3.28C69.54,75.52,69.54,75.94,69.52,76.35Z" transform="translate(0.01)"/>
  </g>
</svg>
